<svg width="52" height="52" viewBox="0 0 52 52" fill="none" xmlns="http://www.w3.org/2000/svg">
<path d="M13.3958 23.2616L13.717 22.9088L13.3796 22.5714L7.04462 16.2364C5.81363 15.0055 5.81363 12.9595 7.04462 11.7286L17.3346 1.43855C17.9537 0.819435 18.7583 0.5 19.5711 0.5C20.3888 0.5 21.2269 0.822924 21.8425 1.43855L50.0875 29.6836C51.3185 30.9145 51.3185 32.9605 50.0875 34.1914L39.7975 44.4814C38.5665 45.7124 36.5206 45.7124 35.2896 44.4814L28.9546 38.1464L28.6173 37.8091L28.2645 38.1303C26.128 40.0752 23.3739 40.9263 20.6441 40.8005L20.4236 40.7904L20.2675 40.9464L18.0975 43.1164L18.0337 43.159L17.9988 43.1822L17.9683 43.211C17.1045 44.0244 15.9419 44.3767 14.8248 44.2674L14.5896 44.2444L14.4225 44.4114L7.98783 50.8462C7.98707 50.8469 7.98631 50.8477 7.98555 50.8484C7.73366 51.0905 7.33888 51.083 7.10236 50.8393C6.85798 50.5875 6.86488 50.191 7.1093 49.9538L7.10934 49.9538L7.11462 49.9486L12.8546 44.2086L13.2513 43.8119L12.8118 43.4633C12.7581 43.4207 12.7127 43.3861 12.6726 43.3556C12.5905 43.2931 12.5309 43.2477 12.4696 43.1864L8.37462 39.0914C8.29289 39.0097 8.22743 38.9255 8.14025 38.8134C8.11662 38.783 8.09139 38.7506 8.06381 38.7156L7.71549 38.2735L7.31751 38.6714L1.57751 44.4114L1.57747 44.4114L1.57228 44.4168C1.33504 44.6612 0.938589 44.6681 0.686805 44.4237C0.443106 44.1872 0.435522 43.7924 0.677676 43.5405C0.678401 43.5397 0.679128 43.539 0.679857 43.5382L7.11462 37.1036L7.28374 36.9344L7.25821 36.6966C7.13304 35.531 7.49687 34.3413 8.37462 33.4636L10.5796 31.2586L10.7357 31.1025L10.7255 30.882C10.5997 28.1521 11.4509 25.3981 13.3958 23.2616ZM22.1296 4.20355L22.4832 3.85L22.1296 3.49645L20.9396 2.30645C20.5562 1.92299 20.0591 1.74 19.5711 1.74C19.083 1.74 18.586 1.92299 18.2025 2.30645L7.91251 12.5964C7.1485 13.3605 7.1485 14.5695 7.91251 15.3336L9.10251 16.5236L9.45607 16.8771L9.80962 16.5236L22.1296 4.20355ZM23.7396 5.10645L23.3861 4.75289L23.0325 5.10645L21.2825 6.85645L20.929 7.21L21.2825 7.56355L43.9625 30.2436L44.3161 30.5971L44.6696 30.2436L46.4196 28.4936L46.7732 28.14L46.4196 27.7864L23.7396 5.10645ZM20.3796 8.46645L20.0261 8.11289L19.6725 8.46645L17.9225 10.2164L17.569 10.57L17.9225 10.9236L40.6025 33.6036L40.9561 33.9571L41.3096 33.6036L43.0596 31.8536L43.4132 31.5L43.0596 31.1464L20.3796 8.46645ZM17.0196 11.8264L16.6661 11.4729L16.3125 11.8264L14.5625 13.5764L14.209 13.93L14.5625 14.2836L37.2425 36.9636L37.5961 37.3171L37.9496 36.9636L39.6996 35.2136L40.0532 34.86L39.6996 34.5064L17.0196 11.8264ZM13.6596 15.1864L13.3061 14.8329L12.9525 15.1864L10.7125 17.4264L10.359 17.78L10.7125 18.1336L33.3925 40.8136L33.7461 41.1671L34.0996 40.8136L36.3396 38.5736L36.6932 38.22L36.3396 37.8664L13.6596 15.1864ZM15.0246 24.2164L14.6506 23.8424L14.2982 24.2369C12.4892 26.2617 11.618 28.8417 11.8979 31.4039L11.9171 31.6919L9.27751 34.3314C8.66925 34.9397 8.38769 35.757 8.46861 36.5554L8.48657 36.7326L8.59081 36.8368C8.62735 36.9213 8.64559 37.018 8.64152 37.1137L8.64107 37.1244V37.135V37.1351V37.1352V37.1352V37.1353V37.1354V37.1355V37.1355V37.1356V37.1357V37.1358V37.1358V37.1359V37.136V37.1361V37.1361V37.1362V37.1363V37.1364V37.1364V37.1365V37.1366V37.1367V37.1367V37.1368V37.1369V37.137V37.137V37.1371V37.1372V37.1373V37.1373V37.1374V37.1375V37.1376V37.1376V37.1377V37.1378V37.1379V37.1379V37.138V37.1381V37.1381V37.1382V37.1383V37.1384V37.1384V37.1385V37.1386V37.1387V37.1387V37.1388V37.1389V37.1389V37.139V37.1391V37.1392V37.1392V37.1393V37.1394V37.1395V37.1395V37.1396V37.1397V37.1397V37.1398V37.1399V37.1399V37.14V37.1401V37.1402V37.1402V37.1403V37.1404V37.1404V37.1405V37.1406V37.1407V37.1407V37.1408V37.1409V37.1409V37.141V37.1411V37.1411V37.1412V37.1413V37.1414V37.1414V37.1415V37.1416V37.1416V37.1417V37.1418V37.1418V37.1419V37.142V37.142V37.1421V37.1422V37.1423V37.1423V37.1424V37.1425V37.1425V37.1426V37.1427V37.1427V37.1428V37.1429V37.1429V37.143V37.1431V37.1431V37.1432V37.1433V37.1433V37.1434V37.1435V37.1436V37.1436V37.1437V37.1438V37.1438V37.1439V37.144V37.144V37.1441V37.1442V37.1442V37.1443V37.1444V37.1444V37.1445V37.1446V37.1446V37.1447V37.1448V37.1448V37.1449V37.145V37.145V37.1451V37.1452V37.1452V37.1453V37.1454V37.1454V37.1455V37.1456V37.1456V37.1457V37.1458V37.1458V37.1459V37.146V37.146V37.1461V37.1462V37.1462V37.1463V37.1464V37.1464V37.1465V37.1466V37.1466V37.1467V37.1468V37.1468V37.1469V37.1469V37.147V37.1471V37.1471V37.1472V37.1473V37.1473V37.1474V37.1475V37.1475V37.1476V37.1477V37.1477V37.1478V37.1479V37.1479V37.148V37.1481V37.1481V37.1482V37.1483V37.1483V37.1484V37.1484V37.1485V37.1486V37.1486V37.1487V37.1488V37.1488V37.1489V37.149V37.149V37.1491V37.1492V37.1492V37.1493V37.1494V37.1494V37.1495V37.1495V37.1496V37.1497V37.1497V37.1498V37.1499V37.1499V37.15V37.1501V37.1501V37.1502V37.1503V37.1503V37.1504V37.1504V37.1505V37.1506V37.1506V37.1507V37.1508V37.1508V37.1509V37.151V37.151V37.1511V37.1512V37.1512V37.1513V37.1513V37.1514V37.1515V37.1515V37.1516V37.1517V37.1517V37.1518V37.1519V37.1519V37.152V37.1521V37.1521V37.1522V37.1522V37.1523V37.1524V37.1524V37.1525V37.1526V37.1526V37.1527V37.1528V37.1528V37.1529V37.153V37.153V37.1531V37.1531V37.1532V37.1533V37.1533V37.1534V37.1535V37.1535V37.1536V37.1537V37.1537V37.1538V37.1538V37.1539V37.154V37.154V37.1541V37.1542V37.1542V37.1543V37.1544V37.1544V37.1545V37.1546V37.1546V37.1547V37.1547V37.1548V37.1549V37.1549V37.155V37.1551V37.1551V37.1552V37.1553V37.1553V37.1554V37.1555V37.1555V37.1556V37.1556V37.1557V37.1558V37.1558V37.1559V37.156V37.156V37.1561V37.1562V37.1562V37.1563V37.1564V37.1564V37.1565V37.1566V37.1566V37.1567V37.1567V37.1568V37.1569V37.1569V37.157V37.1571V37.1571V37.1572V37.1573V37.1573V37.1574V37.1575V37.1575V37.1576V37.1577V37.1577V37.1578V37.1579V37.1579V37.158V37.1581V37.1581V37.1582V37.1582V37.1583V37.1584V37.1584V37.1585V37.1586V37.1586V37.1587V37.1588V37.1588V37.1589V37.159V37.159V37.1591V37.1592V37.1592V37.1593V37.1594V37.1594V37.1595V37.1596V37.1596V37.1597V37.1598V37.1598V37.1599V37.16V37.16V37.1601V37.1602V37.1602V37.1603V37.1604V37.1604V37.1605V37.1606V37.1606V37.1607V37.1608V37.1608V37.1609V37.161V37.161V37.1611V37.1612V37.1612V37.1613V37.1614V37.1614V37.1615V37.1616V37.1617V37.1617V37.1618V37.1619V37.1619V37.162V37.1621V37.1621V37.1622V37.1623V37.1623V37.1624V37.1625V37.1625V37.1626V37.1627V37.1627V37.1628V37.1629V37.163V37.163V37.1631V37.1632V37.1632V37.1633V37.1634V37.1634V37.1635V37.1636V37.1636V37.1637V37.1638V37.1639V37.1639V37.164V37.1641V37.1641V37.1642V37.1643V37.1643V37.1644V37.1645V37.1646V37.1646V37.1647V37.1648V37.1648V37.1649V37.165V37.1651V37.1651V37.1652V37.1653V37.1653V37.1654V37.1655V37.1656V37.1656V37.1657V37.1658V37.1658V37.1659V37.166V37.1661V37.1661V37.1662V37.1663V37.1663V37.1664V37.1665V37.1666V37.1666V37.1667V37.1668V37.1669V37.1669V37.167V37.1671V37.1671V37.1672V37.1673V37.1674V37.1674V37.1675V37.1676V37.1677V37.1677V37.1678V37.1679V37.168V37.168V37.1681V37.1682V37.1683V37.1683V37.1684V37.1685V37.1686V37.1686V37.1687V37.1688V37.1689V37.1689V37.169V37.1691V37.1692V37.1692V37.1693V37.1694V37.1695V37.1695V37.1696V37.1697V37.1698V37.1698V37.1699V37.17V37.2716L8.68069 37.3651C8.82081 37.6958 9.0292 37.9752 9.27751 38.2236L13.3025 42.2486C13.5682 42.5143 13.8783 42.7446 14.2443 42.8858C14.3312 42.92 14.4085 42.9247 14.4549 42.9243C14.4795 42.9241 14.5021 42.9223 14.5194 42.9205C14.5981 42.9273 14.6738 42.9474 14.7396 42.9781L14.8401 43.025H14.9511H14.9511H14.9512H14.9512H14.9513H14.9513H14.9514H14.9514H14.9515H14.9515H14.9516H14.9516H14.9517H14.9517H14.9518H14.9519H14.9519H14.952H14.952H14.9521H14.9521H14.9522H14.9522H14.9523H14.9524H14.9524H14.9525H14.9525H14.9526H14.9526H14.9527H14.9527H14.9528H14.9529H14.9529H14.953H14.953H14.9531H14.9532H14.9532H14.9533H14.9533H14.9534H14.9534H14.9535H14.9536H14.9536H14.9537H14.9537H14.9538H14.9539H14.9539H14.954H14.954H14.9541H14.9542H14.9542H14.9543H14.9544H14.9544H14.9545H14.9545H14.9546H14.9547H14.9547H14.9548H14.9548H14.9549H14.955H14.955H14.9551H14.9552H14.9552H14.9553H14.9554H14.9554H14.9555H14.9555H14.9556H14.9557H14.9557H14.9558H14.9559H14.9559H14.956H14.9561H14.9561H14.9562H14.9563H14.9563H14.9564H14.9565H14.9565H14.9566H14.9567H14.9567H14.9568H14.9569H14.9569H14.957H14.9571H14.9571H14.9572H14.9573H14.9573H14.9574H14.9575H14.9575H14.9576H14.9577H14.9577H14.9578C15.7476 43.1105 16.573 42.8701 17.1946 42.2486L19.8342 39.609L20.122 39.6282C22.6843 39.9081 25.2643 39.0369 27.2892 37.2279L27.6836 36.8755L27.3096 36.5014L15.0246 24.2164ZM48.0296 29.3964L47.6761 29.0429L47.3225 29.3964L35.0025 41.7164L34.649 42.07L35.0025 42.4236L36.1925 43.6136C36.9565 44.3776 38.1656 44.3776 38.9296 43.6136L38.9414 43.6018L38.9524 43.5893L39.1861 43.3221L49.219 33.3242L49.2196 33.3236C49.9836 32.5595 49.9836 31.3505 49.2196 30.5864L48.0296 29.3964Z" fill="white" stroke="black"/>
</svg>
